<mxfile host="app.diagrams.net" modified="2023-05-04T10:24:17.897Z" agent="Mozilla/5.0 (Windows NT 10.0; Win64; x64) AppleWebKit/537.36 (KHTML, like Gecko) Chrome/112.0.0.0 Safari/537.36 Edg/112.0.1722.64" etag="Qb4jHdBlKzhSeaz0NYt2" version="21.2.7" type="device">
  <diagram id="C5RBs43oDa-KdzZeNtuy" name="Page-1">
    <mxGraphModel dx="794" dy="509" grid="1" gridSize="10" guides="1" tooltips="1" connect="1" arrows="1" fold="1" page="1" pageScale="1" pageWidth="827" pageHeight="1169" math="0" shadow="0">
      <root>
        <mxCell id="WIyWlLk6GJQsqaUBKTNV-0" />
        <mxCell id="WIyWlLk6GJQsqaUBKTNV-1" parent="WIyWlLk6GJQsqaUBKTNV-0" />
        <mxCell id="33Vny5mwQWG8W0waQ8Jw-9" value="Log" style="swimlane;whiteSpace=wrap;html=1;" parent="WIyWlLk6GJQsqaUBKTNV-1" vertex="1">
          <mxGeometry x="250" y="30" width="200" height="180" as="geometry" />
        </mxCell>
        <mxCell id="33Vny5mwQWG8W0waQ8Jw-11" value="+ __name:&lt;br&gt;+ __logger:&lt;br&gt;+ __formatter:&lt;br&gt;+ __fileHandler:" style="text;html=1;strokeColor=none;fillColor=none;align=left;verticalAlign=top;whiteSpace=wrap;rounded=0;horizontal=1;" parent="33Vny5mwQWG8W0waQ8Jw-9" vertex="1">
          <mxGeometry y="20" width="200" height="70" as="geometry" />
        </mxCell>
        <mxCell id="33Vny5mwQWG8W0waQ8Jw-16" value="+ __init__(self, name): void&lt;br&gt;+ debug(self, mes): void&lt;br&gt;+ info(self, mes): void&lt;br&gt;+ error(self, mes): void&lt;br&gt;+ exception(self, mes): void" style="text;html=1;strokeColor=none;fillColor=none;align=left;verticalAlign=top;whiteSpace=wrap;rounded=0;horizontal=1;" parent="33Vny5mwQWG8W0waQ8Jw-9" vertex="1">
          <mxGeometry y="90" width="200" height="110" as="geometry" />
        </mxCell>
        <mxCell id="33Vny5mwQWG8W0waQ8Jw-13" value="" style="endArrow=none;html=1;rounded=0;exitX=0;exitY=1;exitDx=0;exitDy=0;entryX=1;entryY=1;entryDx=0;entryDy=0;" parent="33Vny5mwQWG8W0waQ8Jw-9" source="33Vny5mwQWG8W0waQ8Jw-11" target="33Vny5mwQWG8W0waQ8Jw-11" edge="1">
          <mxGeometry width="50" height="50" relative="1" as="geometry">
            <mxPoint x="110" y="140" as="sourcePoint" />
            <mxPoint x="160" y="90" as="targetPoint" />
            <Array as="points">
              <mxPoint x="100" y="90" />
            </Array>
          </mxGeometry>
        </mxCell>
      </root>
    </mxGraphModel>
  </diagram>
</mxfile>
